<?xml version="1.0" standalone="no"?>
<!DOCTYPE svg PUBLIC "-//W3C//DTD SVG 20010904//EN"
 "http://www.w3.org/TR/2001/REC-SVG-20010904/DTD/svg10.dtd">
<svg version="1.0" xmlns="http://www.w3.org/2000/svg"
 width="1755.000000pt" height="1755.000000pt" viewBox="0 0 1755.000000 1755.000000"
 preserveAspectRatio="xMidYMid meet">
<metadata>
Created by potrace 1.14, written by Peter Selinger 2001-2017
</metadata>
<g transform="translate(0.000000,1755.000000) scale(0.100000,-0.100000)"
fill="#000000" stroke="none">
<path d="M0 8775 l0 -8775 8775 0 8775 0 0 8775 0 8775 -8775 0 -8775 0 0
-8775z m10075 5275 c379 -19 641 -81 924 -216 284 -136 524 -332 728 -594 86
-111 152 -219 229 -375 84 -172 131 -303 179 -495 29 -116 40 -182 70 -390 3
-19 10 -126 15 -238 21 -425 -33 -874 -156 -1301 -309 -1067 -1037 -1827
-1994 -2080 -281 -74 -472 -91 -1041 -91 -333 0 -419 -3 -434 -14 -16 -11 -43
-209 -221 -1625 -111 -887 -208 -1626 -215 -1643 -19 -46 -56 -86 -103 -111
l-41 -22 -1025 -3 c-735 -2 -1040 1 -1080 9 -61 13 -114 56 -126 105 -11 44
1072 8907 1095 8959 10 22 36 57 59 77 39 36 54 42 112 51 54 9 2856 6 3025
-3z"/>
<path d="M9054 11931 c-12 -5 -24 -13 -27 -18 -3 -5 -52 -392 -108 -862 -87
-726 -100 -854 -88 -862 25 -18 325 -4 400 18 178 52 338 193 433 382 45 87
93 247 116 386 19 113 21 155 17 315 -5 203 -14 246 -70 363 -61 128 -161 218
-287 258 -50 17 -99 22 -215 25 -82 2 -160 0 -171 -5z"/>
</g>
</svg>
